<mxfile host="app.diagrams.net" agent="Mozilla/5.0 (Windows NT 10.0; Win64; x64) AppleWebKit/537.36 (KHTML, like Gecko) Chrome/130.0.0.0 Safari/537.36" version="24.8.6">
  <diagram name="Trang-1" id="4Tqes75RaOWNUn7xR7QQ">
    <mxGraphModel grid="1" page="1" gridSize="10" guides="1" tooltips="1" connect="1" arrows="1" fold="1" pageScale="1" pageWidth="827" pageHeight="1169" math="0" shadow="0">
      <root>
        <mxCell id="0" />
        <mxCell id="1" parent="0" />
        <mxCell id="vZk-ZLDIYvIbXZ39rWnZ-1" style="edgeStyle=orthogonalEdgeStyle;rounded=0;orthogonalLoop=1;jettySize=auto;html=1;exitX=0.5;exitY=1;exitDx=0;exitDy=0;entryX=0.5;entryY=0;entryDx=0;entryDy=0;" edge="1" parent="1" source="vZk-ZLDIYvIbXZ39rWnZ-2" target="vZk-ZLDIYvIbXZ39rWnZ-3">
          <mxGeometry relative="1" as="geometry">
            <mxPoint x="405" y="170" as="targetPoint" />
            <Array as="points">
              <mxPoint x="405" y="140" />
              <mxPoint x="406" y="140" />
            </Array>
          </mxGeometry>
        </mxCell>
        <mxCell id="vZk-ZLDIYvIbXZ39rWnZ-2" value="&lt;font style=&quot;font-size: 24px;&quot;&gt;START&lt;/font&gt;" style="ellipse;whiteSpace=wrap;html=1;" vertex="1" parent="1">
          <mxGeometry x="335" y="30" width="140" height="80" as="geometry" />
        </mxCell>
        <mxCell id="vZk-ZLDIYvIbXZ39rWnZ-3" value="&lt;font style=&quot;font-size: 24px;&quot;&gt;INPUT A, B&lt;/font&gt;" style="shape=parallelogram;perimeter=parallelogramPerimeter;whiteSpace=wrap;html=1;fixedSize=1;" vertex="1" parent="1">
          <mxGeometry x="310" y="260" width="190" height="80" as="geometry" />
        </mxCell>
        <mxCell id="vZk-ZLDIYvIbXZ39rWnZ-4" value="" style="endArrow=classic;html=1;rounded=0;entryX=0.478;entryY=0;entryDx=0;entryDy=0;entryPerimeter=0;" edge="1" parent="1" target="vZk-ZLDIYvIbXZ39rWnZ-18">
          <mxGeometry width="50" height="50" relative="1" as="geometry">
            <mxPoint x="404.5" y="340" as="sourcePoint" />
            <mxPoint x="405" y="450" as="targetPoint" />
          </mxGeometry>
        </mxCell>
        <mxCell id="vZk-ZLDIYvIbXZ39rWnZ-9" value="" style="endArrow=classic;html=1;rounded=0;" edge="1" parent="1">
          <mxGeometry width="50" height="50" relative="1" as="geometry">
            <mxPoint x="404.5" y="600" as="sourcePoint" />
            <mxPoint x="404.5" y="730" as="targetPoint" />
            <Array as="points" />
          </mxGeometry>
        </mxCell>
        <mxCell id="vZk-ZLDIYvIbXZ39rWnZ-12" value="&lt;font style=&quot;font-size: 24px;&quot;&gt;END&lt;/font&gt;" style="ellipse;whiteSpace=wrap;html=1;" vertex="1" parent="1">
          <mxGeometry x="335" y="920" width="140" height="80" as="geometry" />
        </mxCell>
        <mxCell id="vZk-ZLDIYvIbXZ39rWnZ-17" style="edgeStyle=orthogonalEdgeStyle;rounded=0;orthogonalLoop=1;jettySize=auto;html=1;exitX=0.5;exitY=1;exitDx=0;exitDy=0;entryX=0.5;entryY=0;entryDx=0;entryDy=0;" edge="1" parent="1" source="vZk-ZLDIYvIbXZ39rWnZ-15" target="vZk-ZLDIYvIbXZ39rWnZ-12">
          <mxGeometry relative="1" as="geometry" />
        </mxCell>
        <mxCell id="vZk-ZLDIYvIbXZ39rWnZ-15" value="&lt;font style=&quot;font-size: 24px;&quot;&gt;PRINT SUM&lt;/font&gt;" style="shape=parallelogram;perimeter=parallelogramPerimeter;whiteSpace=wrap;html=1;fixedSize=1;" vertex="1" parent="1">
          <mxGeometry x="280" y="730" width="250" height="90" as="geometry" />
        </mxCell>
        <mxCell id="vZk-ZLDIYvIbXZ39rWnZ-18" value="&lt;font style=&quot;font-size: 24px;&quot;&gt;SUM = A + B&lt;/font&gt;" style="rounded=0;whiteSpace=wrap;html=1;" vertex="1" parent="1">
          <mxGeometry x="280" y="500" width="257.5" height="100" as="geometry" />
        </mxCell>
      </root>
    </mxGraphModel>
  </diagram>
</mxfile>
